<?xml version="1.0" encoding="utf-8"?>
<!-- Generator: Adobe Illustrator 28.0.0, SVG Export Plug-In . SVG Version: 6.00 Build 0)  -->
<svg version="1.1" xmlns="http://www.w3.org/2000/svg" xmlns:xlink="http://www.w3.org/1999/xlink" x="0px" y="0px"
	 viewBox="0 0 550.7 551.1" style="enable-background:new 0 0 550.7 551.1;" xml:space="preserve">
	<path fill="#fff" id="G" stroke="#fff" d="M145,390.9c-20-15.6-21.5-32.7-21.9-46.8c-0.6-23.3,10.6-42,22.9-51.6c3.7-2.9,11.4-8.4,20.1-11.5
		c12.4-4.5,26.3-6.2,33.8-5.9c8.3-0.1,16.6,0.8,24.6,2.6c7.3,1.7,14.1,4.4,20.7,7.8c28.6,17,30.5,39.9,31.6,47.1
		c0.7,5.1,0.9,10.4,0.7,15.6c-2.6,32.5-24.6,44.5-24.6,44.5L242,377.8c4.5-4.6,8.3-10.8,10.2-20.6c0.8-5,1-10.3,0.3-15.4
		c-1.8-11.3-8.4-25-27.3-32.6c-6.3-2.5-17.6-4.1-23.8-4.1c-15.1,0-41.1,3.6-51,29.1c-2.9,7.7-2.3,21.4-0.1,29.3
		c4.6,15.6,20.8,24.6,31.3,26.8c6.8,1.5,13.9,2.2,20.8,2c6.1-0.3,12.2-1.1,18.1-2.5c8.6-2,17.2-7.1,22.5-13l10.2,15.5l24.6-0.2
		l0.2,27.7l-146.5,1.1c-5.6,0.1-11.1-0.4-16.7-1.4c-7.2-1.5-13.4-3.2-21.5-8C76,401,70.1,383.1,67.7,375c-1.7-5.9-3.2-17.2-3-28.4
		c0.2-7.5,1.3-14.8,3-22.1c1-3.6,2.2-7.1,3.7-10.5c1.3-2.6,2.5-5.1,4.2-7.6c2.4-3.7,5.4-7.1,8.7-10.1c4.9-4.4,10.2-7.6,14.9-9.2
		c9.5-3,14.7-3.6,14.7-3.6l0.2,29.1c-1.9,0.3-3.8,0.7-5.7,1.3c-1.8,0.5-3.5,1.3-5.1,2.1c-3.4,1.8-6.4,4.5-8.6,7.7
		c-1.5,2.2-2.7,4.6-3.7,7c-1.9,5-2.8,10.2-3,19.4c-0.1,6.8,2,17.5,4.6,22.6c4.9,9.7,11.1,12.4,15.9,15.2c4.2,2.4,12.8,3.8,18.8,3.9
		c2.5,0,19,0.1,19,0.1C146,391.7,145.4,391.3,145,390.9z"/>
	<path fill="#fff" id="W" stroke="#fff" d="M171.2,92.3h31.2L237,207.7l34.1-115.4H300l34.2,115.1l34.7-115.1h30.9l-49.4,149.2h-30.3l-34.7-113.6
		l-34.2,113.6l-30.8-0.5L171.2,92.3z"/>
	<path fill="#fff" id="B" stroke="#fff" d="M289.5,249.1l28.9,0.1l0,77.4c0,0,7.4-10.9,18.1-16.7c11.4-6.1,21-7.5,27.7-7.5c6.3-0.1,13.8,0.3,18.7,1.5
		c6,1.4,11.6,3.5,17,6.2c4.9,2.7,9.5,6.1,13.5,10c3.6,3.7,6.7,7.6,9.5,11.9c2.1,3.7,4,7.3,5.6,11.2c2.1,5.6,3.7,11.5,4.9,17.3
		c1,6.6,1.7,13.3,1.7,20c-0.1,5.3-0.5,15.2-1.9,21.2c-0.1,0.4-29.8-5-29.8-5c1.1-5.7,1.8-11.7,1.7-17.4c0.1-6.9-0.8-15-2.3-19.7
		c-1.1-3.5-3.6-10.6-5.6-13.7c-2.8-4.8-6.8-9.2-11.7-12.1c-3.6-2.3-10.5-5.3-16.1-5.9c-12.1-1.5-17.1,0.1-21,1.1
		c-6.1,1.5-11.7,4.6-16.1,9.1c-7.5,7.2-10.9,16.7-12.5,23c-1.2,4.7-2.4,14.6-2.1,19.4c0.1,4.8,0.9,14.1,2,18.7
		c0.9,3.5,3.1,10.7,5.1,13.8c2.2,3.7,7.5,10.3,11,12.8c4.7,3,9.8,5.3,15.2,6.8c3.3,0.8,9.8,1.4,13.1,1.1c4.1-0.4,12.1-2.1,15.6-3.8
		c4.2-2.1,8.1-4.9,11.4-8.3c0.6-0.7,9.8-10.1,12.2-24.8l30,3.7c-4.5,21.6-8.5,25.3-14,33.3c-2.7,4-7.9,8.7-11,11.2
		c-5.7,4.7-12.4,7.6-16.9,9.5c-3.7,1.2-7.5,2.3-11.3,3c-4.1,0.7-8.2,1.2-12.4,1.2c-7.5,0.2-14.9-0.9-22-3.2
		c-5.5-1.8-10.7-4.5-15.2-8c-3-2.3-5.9-5.1-8.4-8c-1.9-2.2-3.5-4.5-5.2-6.9l0.1,22.6l-27.8,0L289.5,249.1z"/>
</svg>
